<svg xmlns="http://www.w3.org/2000/svg" xmlns:xlink="http://www.w3.org/1999/xlink" fill="none" version="1.1" width="421" height="210.0003662109375" viewBox="0 0 421 210.0003662109375"><defs><clipPath id="master_svg0_11_0950"><rect x="0" y="0" width="421" height="210.0003662109375" rx="0"/></clipPath><linearGradient x1="0.3919753134250641" y1="0.7325581312179565" x2="0.2799266056219182" y2="0.494627580808665" id="master_svg1_11_1035"><stop offset="4.285714402794838%" stop-color="#B5F1FF" stop-opacity="1"/><stop offset="100%" stop-color="#E8FBFF" stop-opacity="1"/></linearGradient><linearGradient x1="0.3919753134250641" y1="0.7325581312179565" x2="0.2799266056219182" y2="0.494627580808665" id="master_svg2_11_1171"><stop offset="8.571428805589676%" stop-color="#C9DDFF" stop-opacity="1"/><stop offset="100%" stop-color="#EFF5FF" stop-opacity="1"/></linearGradient></defs><g clip-path="url(#master_svg0_11_0950)"><g><g><path d="M182.41207,154.87028310546873Q181,154.87028310546873,181,153.45778310546876L181,143.99458310546873Q181,143.28828310546874,181.42362,142.29958310546874L214.1836,68.42958310546875Q214.3248,68.14708310546875,214.1836,67.93518310546875Q214.0424,67.72338310546876,213.75990000000002,67.72338310546876L182.41207,67.72338310546876Q181,67.72338310546876,181,66.31088310546875L181,57.41261310546875Q181,56.00018310546875,182.41207,56.00018310546875L227.457,56.00018310546875Q228.8691,56.00018310546875,228.8691,57.41261310546875L228.8691,66.87588310546874Q228.8691,67.44088310546874,228.4454,68.57078310546875L195.5443,142.44088310546874Q195.4031,142.72338310546877,195.5443,142.93518310546875Q195.6855,143.14708310546877,195.9679,143.14708310546877L227.457,143.14708310546877Q228.8691,143.14708310546877,228.8691,144.55948310546876L228.8691,153.45778310546876Q228.8691,154.87028310546873,227.457,154.87028310546873L182.41207,154.87028310546873ZM255.5571,154.87028310546873Q254.28629999999998,154.87028310546873,254.0038,153.59908310546876L236.6354,84.53128310546875L236.4942,83.96628310546875Q236.4942,82.97758310546875,237.7651,82.97758310546875L249.76760000000002,82.97758310546875Q251.1797,82.97758310546875,251.3209,84.24878310546875L261.4878,132.69508310546877Q261.629,133.11878310546876,261.7702,133.11878310546876Q261.9114,133.11878310546876,262.0526,132.69508310546877L272.0783,84.24878310546875Q272.3607,82.97758310546875,273.6316,82.97758310546875L285.634,83.11878310546875Q286.34000000000003,83.11878310546875,286.693,83.54258310546875Q287.046,83.96628310546875,286.764,84.67248310546876L269.5366,153.59908310546876Q269.3954,154.87028310546873,267.9833,154.87028310546873L255.5571,154.87028310546873ZM341.976,123.09058310546875Q341.976,124.50298310546874,340.56399999999996,124.50298310546874L308.651,124.50298310546874Q308.086,124.50298310546874,308.086,125.06798310546876L308.086,132.69508310546877Q308.086,137.77988310546874,310.90999999999997,141.02848310546875Q313.73400000000004,144.27698310546873,318.253,144.27698310546873Q322.207,144.27698310546873,324.89,141.87588310546874Q327.573,139.47478310546876,328.279,135.66118310546875Q328.702,134.53128310546873,329.832,134.53128310546873L340.281,135.09618310546875Q340.98699999999997,135.09618310546875,341.34000000000003,135.51998310546875Q341.693,135.94368310546875,341.552,136.50868310546875Q340.56399999999996,145.68948310546875,334.562,150.84478310546876Q328.56100000000004,156.00018310546875,318.253,156.00018310546875Q307.38,156.00018310546875,300.955,149.92678310546876Q294.53,143.85328310546873,294.53,133.68378310546876L294.53,104.30528310546876Q294.53,94.27698310546876,300.955,88.06228310546875Q307.38,81.84768310546875,318.253,81.84768310546875Q329.267,81.84768310546875,335.621,88.06228310546875Q341.976,94.27698310546876,341.976,104.30528310546876L341.976,123.09058310546875ZM318.253,93.57078310546875Q313.73400000000004,93.57078310546875,310.90999999999997,96.81938310546875Q308.086,100.06798310546876,308.086,105.15268310546875L308.086,112.63858310546874Q308.086,113.20358310546875,308.651,113.20358310546875L327.996,113.20358310546875Q328.56100000000004,113.20358310546875,328.56100000000004,112.63858310546874L328.56100000000004,105.15268310546875Q328.56100000000004,100.06798310546876,325.73699999999997,96.81938310546875Q322.913,93.57078310546875,318.253,93.57078310546875ZM377.13599999999997,156.00018310546875Q366.26300000000003,156.00018310546875,359.83799999999997,149.92678310546876Q353.413,143.85328310546873,353.413,133.54258310546874L353.413,104.30528310546876Q353.413,94.27698310546876,359.83799999999997,88.06228310546875Q366.26300000000003,81.84768310546875,377.13599999999997,81.84768310546875Q384.33799999999997,81.84768310546875,389.774,84.60188310546874Q395.211,87.35608310546874,398.105,92.08778310546876Q401,96.81938310546875,401,102.75158310546874L401,104.58778310546876Q401,106.00018310546875,399.58799999999997,106.00018310546875L388.856,106.42388310546875Q387.44399999999996,106.42388310546875,387.44399999999996,105.01148310546876L387.44399999999996,103.59908310546875Q387.44399999999996,99.50298310546876,384.47900000000004,96.53688310546875Q381.51300000000003,93.57078310546875,377.13599999999997,93.57078310546875Q372.61699999999996,93.57078310546875,369.793,96.81938310546875Q366.969,100.06798310546876,366.969,105.15268310546875L366.969,132.69508310546877Q366.969,137.77988310546874,369.793,141.02848310546875Q372.61699999999996,144.27698310546873,377.13599999999997,144.27698310546873Q381.51300000000003,144.27698310546873,384.47900000000004,141.31088310546875Q387.44399999999996,138.34478310546876,387.44399999999996,134.24878310546876L387.44399999999996,132.83638310546877Q387.44399999999996,131.42388310546875,388.856,131.42388310546875L399.58799999999997,131.56518310546875Q401,131.56518310546875,401,132.97758310546874L401,135.09618310546875Q401,144.27698310546873,394.504,150.13858310546874Q388.009,156.00018310546875,377.13599999999997,156.00018310546875Z" fill="#000000" fill-opacity="1"/></g><g><path d="M20,71.00268310546875C20,78.90648310546875,24.65467,86.06888310546876,31.877200000000002,89.27898310546874L72.8772,107.50118310546875C86.103,113.37928310546874,101,103.69808310546875,101,89.22498310546875L101,82.99768310546875C101,75.09388310546875,96.3453,67.93148310546874,89.1228,64.72138310546875L48.1228,46.49918310546875C34.897,40.62108310546875,20,50.302283105468746,20,64.77538310546875L20,71.00268310546875Z" fill="url(#master_svg1_11_1035)" fill-opacity="1"/></g><g transform="matrix(-1,0,0,-1,294,352.0003662109375)"><path d="M147,213.00268310546875C147,220.90648310546874,151.65467,228.06888310546876,158.8772,231.27898310546874L199.87720000000002,249.50118310546875C213.103,255.37928310546874,228,245.69808310546875,228,231.22498310546877L228,224.99768310546875C228,217.09388310546876,223.3453,209.93148310546874,216.12279999999998,206.72138310546876L175.1228,188.49918310546875C161.897,182.62108310546876,147,192.30228310546875,147,206.77538310546876L147,213.00268310546875Z" fill="url(#master_svg2_11_1171)" fill-opacity="1"/></g><g><path d="M147,78.73729650796875L19.999999999999993,131.10838779296876L20,133.00018779296875C20,140.39578779296875,25.01775,146.61948779296876,31.8345,148.45258779296876L121.859,187.63348779296877C124.372,189.13448779296874,127.332,190.00048779296876,130.5,190.00048779296876C139.613,190.00048779296876,147,182.83648779296874,147,174.00018779296875L147,139.00018779296875L146.99200000000002,139.00018779296875C146.72199999999998,147.91408779296876,139.418,155.00018779296875,130.5,155.00018779296875C127.893,155.00018779296875,125.322,154.38228779296875,123,153.19708779296874L123,153.26478779296875L84.7111,136.62638779296876C84.5033,136.55838779296874,84.3024,136.47098779296874,84.1109,136.36548779296874L84,136.31738779296876L84,136.30178779296875C82.9453,135.66938779296873,82.2998,134.52978779296876,82.2998,133.29998779296875C82.2998,132.07018779296874,82.9453,130.93058779296877,84,130.29818779296875L84,130.27628779296876L84.1483,130.21418779296874C84.3424,130.11028779296873,84.5459,130.02488779296874,84.7561,129.95918779296875L138.043,107.61098779296876C143.197,106.26388779296875,147,101.57618779296875,147,96.00018779296875L147,78.73729650796875Z" fill-rule="evenodd" fill="#4000FF" fill-opacity="1"/></g><g transform="matrix(-1,0,0,-1,294,262.5257568359375)"><path d="M274,131.26268713296875L147,183.63377841796876L147,185.52557841796875C147,192.92117841796875,152.01775,199.14487841796876,158.8345,200.97797841796876L248.85899999999998,240.15887841796877C251.372,241.65987841796874,254.332,242.52587841796876,257.5,242.52587841796876C266.613,242.52587841796876,274,235.36187841796874,274,226.52557841796875L274,191.52557841796875L273.992,191.52557841796875C273.722,200.43947841796876,266.418,207.52557841796875,257.5,207.52557841796875C254.893,207.52557841796875,252.322,206.90767841796875,250,205.72247841796874L250,205.79017841796875L211.7111,189.15177841796876C211.5033,189.08377841796874,211.3024,188.99637841796874,211.11090000000002,188.89087841796874L211,188.84277841796876L211,188.82717841796875C209.9453,188.19477841796873,209.2998,187.05517841796876,209.2998,185.82537841796875C209.2998,184.59557841796874,209.9453,183.45597841796877,211,182.82357841796875L211,182.80167841796876L211.1483,182.73957841796874C211.3424,182.63567841796873,211.54590000000002,182.55027841796874,211.7561,182.48457841796875L265.043,160.13637841796876C270.197,158.78927841796875,274,154.10157841796874,274,148.52557841796875L274,131.26268713296875Z" fill-rule="evenodd" fill="#149BFB" fill-opacity="1"/></g></g></g></svg>